<?xml version="1.0" encoding="UTF-8" standalone="no"?>
<!DOCTYPE svg PUBLIC "-//W3C//DTD SVG 1.1//EN" "http://www.w3.org/Graphics/SVG/1.1/DTD/svg11.dtd">
<svg width="100%" height="100%" viewBox="0 0 834 320" version="1.1" xmlns="http://www.w3.org/2000/svg" xmlns:xlink="http://www.w3.org/1999/xlink" xml:space="preserve" xmlns:serif="http://www.serif.com/" style="fill-rule:evenodd;clip-rule:evenodd;stroke-linejoin:round;stroke-miterlimit:2;">
    <g transform="matrix(1,0,0,1,-4412.28,-2225.8)">
        <g>
            <path d="M5217.85,2545.25L4495.61,2545.25L4412.28,2392.47L4574.59,2392.47C4589.32,2392.47 4603.46,2398.32 4613.87,2408.74L4636.89,2431.75C4647.31,2442.17 4661.44,2448.02 4676.17,2448.02L5077.98,2448.02C5087.27,2448.02 5095.95,2443.38 5101.1,2435.65L5112.38,2418.73C5117.53,2411 5126.21,2406.36 5135.5,2406.36L5245.63,2406.36L5217.85,2545.25Z" style="fill:rgb(166,111,171);fill-rule:nonzero;"/>
            <rect x="4690.06" y="2253.57" width="97.23" height="55.56" style="fill:rgb(166,111,171);fill-rule:nonzero;"/>
            <rect x="4578.95" y="2253.57" width="97.22" height="55.56" style="fill:rgb(166,111,171);fill-rule:nonzero;"/>
            <rect x="4467.83" y="2323.02" width="97.23" height="55.56" style="fill:rgb(166,111,171);fill-rule:nonzero;"/>
            <rect x="4578.95" y="2323.02" width="208.34" height="55.56" style="fill:rgb(166,111,171);fill-rule:nonzero;"/>
            <rect x="4801.18" y="2323.02" width="97.22" height="55.56" style="fill:rgb(166,111,171);fill-rule:nonzero;"/>
            <rect x="4912.29" y="2323.02" width="97.22" height="55.56" style="fill:rgb(166,111,171);fill-rule:nonzero;"/>
            <path d="M4623.7,2398.92L4646.71,2421.93C4654.58,2429.8 4665.04,2434.14 4676.17,2434.14L4676.17,2392.47L4615.85,2392.47C4618.55,2394.48 4621.27,2396.49 4623.7,2398.92Z" style="fill:rgb(166,111,171);fill-rule:nonzero;"/>
            <path d="M5137.72,2281.35L5137.72,2309.13L5090.5,2309.13L5084.94,2281.35L5137.72,2281.35ZM5151.61,2350.8L5165.5,2350.8L5165.5,2364.69L5151.61,2364.69L5151.61,2350.8ZM5151.61,2281.35L5165.5,2281.35L5165.5,2309.13L5151.61,2309.13L5151.61,2281.35ZM5137.72,2364.69L5123.83,2364.69L5123.83,2350.8L5137.72,2350.8L5137.72,2364.69ZM5109.95,2364.69L5096.06,2364.69L5096.06,2350.8L5109.95,2350.8L5109.95,2364.69ZM5082.17,2336.91L5070.01,2434.14L5077.98,2434.14C5082.64,2434.14 5086.96,2431.82 5089.54,2427.95L5100.83,2411.02C5108.57,2399.4 5121.53,2392.47 5135.5,2392.47L5189.01,2392.47L5179.39,2267.46L5179.39,2253.57L5151.61,2253.57L5151.61,2225.8L5123.83,2225.8L5114.57,2253.57L5068.28,2253.57L5068.28,2281.35L5071.06,2281.35L5082.17,2336.91Z" style="fill:rgb(166,111,171);fill-rule:nonzero;"/>
            <rect x="4690.06" y="2392.47" width="97.23" height="41.67" style="fill:rgb(166,111,171);fill-rule:nonzero;"/>
            <rect x="4801.18" y="2392.47" width="208.33" height="41.67" style="fill:rgb(166,111,171);fill-rule:nonzero;"/>
        </g>
    </g>
</svg>
