<?xml version="1.0" encoding="UTF-8" standalone="no"?>
<!DOCTYPE svg PUBLIC "-//W3C//DTD SVG 1.1//EN" "http://www.w3.org/Graphics/SVG/1.1/DTD/svg11.dtd">
<svg width="100%" height="100%" viewBox="0 0 830 377" version="1.1" xmlns="http://www.w3.org/2000/svg" xmlns:xlink="http://www.w3.org/1999/xlink" xml:space="preserve" xmlns:serif="http://www.serif.com/" style="fill-rule:evenodd;clip-rule:evenodd;stroke-linejoin:round;stroke-miterlimit:2;">
    <g transform="matrix(1,0,0,1,-288.014,-2168.42)">
        <g>
            <path d="M1020.21,2461.91C1012.53,2461.91 1006.32,2455.69 1006.32,2448.02C1006.32,2440.35 1012.53,2434.14 1020.21,2434.14C1027.88,2434.14 1034.1,2440.35 1034.1,2448.02C1034.1,2455.69 1027.88,2461.91 1020.21,2461.91ZM922.981,2461.91C915.31,2461.91 909.092,2455.69 909.092,2448.02C909.092,2440.35 915.31,2434.14 922.981,2434.14C930.652,2434.14 936.87,2440.35 936.87,2448.02C936.87,2455.69 930.652,2461.91 922.981,2461.91ZM825.756,2461.91C818.085,2461.91 811.867,2455.69 811.867,2448.02C811.867,2440.35 818.085,2434.14 825.756,2434.14C833.427,2434.14 839.645,2440.35 839.645,2448.02C839.645,2455.69 833.427,2461.91 825.756,2461.91ZM728.531,2461.91C720.86,2461.91 714.642,2455.69 714.642,2448.02C714.642,2440.35 720.86,2434.14 728.531,2434.14C736.202,2434.14 742.42,2440.35 742.42,2448.02C742.42,2455.69 736.202,2461.91 728.531,2461.91ZM631.306,2461.91C623.635,2461.91 617.417,2455.69 617.417,2448.02C617.417,2440.35 623.635,2434.14 631.306,2434.14C638.977,2434.14 645.195,2440.35 645.195,2448.02C645.195,2455.69 638.977,2461.91 631.306,2461.91ZM534.081,2461.91C526.41,2461.91 520.192,2455.69 520.192,2448.02C520.192,2440.35 526.41,2434.14 534.081,2434.14C541.752,2434.14 547.97,2440.35 547.97,2448.02C547.97,2455.69 541.752,2461.91 534.081,2461.91ZM436.856,2461.91C429.185,2461.91 422.967,2455.69 422.967,2448.02C422.967,2440.35 429.185,2434.14 436.856,2434.14C444.527,2434.14 450.745,2440.35 450.745,2448.02C450.745,2455.69 444.527,2461.91 436.856,2461.91ZM288.014,2392.47C315.793,2489.69 409.077,2545.25 409.077,2545.25L1075.76,2545.25C1075.76,2545.25 1117.43,2489.69 1117.43,2392.47L288.014,2392.47Z" style="fill:rgb(47,157,76);fill-rule:nonzero;"/>
            <g transform="matrix(1.01316,0,0,0.84061,-14.3054,379.122)">
                <path d="M485.32,2281.35L1036.85,2281.35L1039.93,2295.24L909.093,2295.24L909.093,2323.02L1046.11,2323.02L1049.19,2336.91L789.84,2336.91L762.062,2309.13L463.713,2309.13L485.32,2281.35ZM597.506,2211.9L703.263,2211.9L711.593,2253.57L572.504,2253.57L597.506,2211.9ZM862.935,2211.9L994.938,2211.9L1003.27,2253.57L846.274,2253.57L862.935,2211.9ZM931.568,2156.35L950.761,2156.35L950.761,2184.13L917.679,2184.13L931.568,2156.35ZM374.51,2378.58L589.639,2378.58L589.639,2350.8L431.302,2350.8L442.105,2336.91L750.56,2336.91L778.338,2364.69L1055.36,2364.69L1058.45,2378.58L1086.91,2378.58L1059.12,2253.57L1031.59,2253.57L1017.7,2184.13L978.539,2184.13L978.539,2128.57L914.396,2128.57L886.618,2184.13L844.136,2184.13L816.35,2253.57L739.917,2253.57L726.023,2184.13L581.772,2184.13L540.107,2253.57L471.729,2253.57L396.116,2350.8L395.189,2350.8L395.189,2351.99L374.51,2378.58Z" style="fill:rgb(47,157,76);fill-rule:nonzero;"/>
            </g>
        </g>
    </g>
</svg>
