<?xml version="1.0" encoding="UTF-8" standalone="no"?>
<!DOCTYPE svg PUBLIC "-//W3C//DTD SVG 1.1//EN" "http://www.w3.org/Graphics/SVG/1.1/DTD/svg11.dtd">
<svg width="100%" height="100%" viewBox="0 0 653 223" version="1.1" xmlns="http://www.w3.org/2000/svg" xmlns:xlink="http://www.w3.org/1999/xlink" xml:space="preserve" xmlns:serif="http://www.serif.com/" style="fill-rule:evenodd;clip-rule:evenodd;stroke-linejoin:round;stroke-miterlimit:2;">
    <g transform="matrix(1,0,0,1,-4502.56,-278.049)">
        <g>
            <path d="M4717.84,444.721C4706.33,444.721 4697.01,438.502 4697.01,430.832C4697.01,423.16 4706.33,416.942 4717.84,416.942C4729.35,416.942 4738.67,423.16 4738.67,430.832C4738.67,438.502 4729.35,444.721 4717.84,444.721ZM4634.5,444.721C4623,444.721 4613.67,438.502 4613.67,430.832C4613.67,423.16 4623,416.942 4634.5,416.942C4646.01,416.942 4655.34,423.16 4655.34,430.832C4655.34,438.502 4646.01,444.721 4634.5,444.721ZM5099.8,403.053L4869.72,403.053C4855.49,403.053 4841.6,398.679 4829.93,390.523L4826.04,387.803C4814.38,379.648 4800.49,375.274 4786.25,375.274L4502.56,375.274C4530.33,472.499 4641.45,500.278 4641.45,500.278L5155.35,500.278L5099.8,403.053Z" style="fill:rgb(41,41,41);fill-rule:nonzero;"/>
            <path d="M4827.22,305.828L4891.46,305.828L4891.46,347.496L4780.34,347.496L4827.22,305.828ZM4786.25,361.385C4803.42,361.385 4819.93,366.584 4834,376.42L4837.89,379.14C4847.27,385.697 4858.28,389.164 4869.72,389.164L4919.23,389.164L4919.23,336.762L4978.19,389.164L5020.01,389.164L4919.23,299.586L4919.23,278.049L4808.12,278.049L4808.12,290.396L4728.26,361.385L4786.25,361.385Z" style="fill:rgb(41,41,41);fill-rule:nonzero;"/>
        </g>
    </g>
</svg>
