<?xml version="1.0" encoding="UTF-8" standalone="no"?>
<!DOCTYPE svg PUBLIC "-//W3C//DTD SVG 1.1//EN" "http://www.w3.org/Graphics/SVG/1.1/DTD/svg11.dtd">
<svg width="100%" height="100%" viewBox="0 0 830 376" version="1.1" xmlns="http://www.w3.org/2000/svg" xmlns:xlink="http://www.w3.org/1999/xlink" xml:space="preserve" xmlns:serif="http://www.serif.com/" style="fill-rule:evenodd;clip-rule:evenodd;stroke-linejoin:round;stroke-miterlimit:2;">
    <g transform="matrix(1,0,0,1,-1664.11,-2170.24)">
        <g>
            <path d="M2382.41,2461.91C2374.74,2461.91 2368.52,2455.69 2368.52,2448.02C2368.52,2440.35 2374.74,2434.14 2382.41,2434.14C2390.08,2434.14 2396.3,2440.35 2396.3,2448.02C2396.3,2455.69 2390.08,2461.91 2382.41,2461.91ZM2299.08,2461.91C2291.41,2461.91 2285.19,2455.69 2285.19,2448.02C2285.19,2440.35 2291.41,2434.14 2299.08,2434.14C2306.75,2434.14 2312.97,2440.35 2312.97,2448.02C2312.97,2455.69 2306.75,2461.91 2299.08,2461.91ZM2215.74,2461.91C2208.07,2461.91 2201.85,2455.69 2201.85,2448.02C2201.85,2440.35 2208.07,2434.14 2215.74,2434.14C2223.41,2434.14 2229.63,2440.35 2229.63,2448.02C2229.63,2455.69 2223.41,2461.91 2215.74,2461.91ZM2132.41,2461.91C2124.73,2461.91 2118.52,2455.69 2118.52,2448.02C2118.52,2440.35 2124.73,2434.14 2132.41,2434.14C2140.08,2434.14 2146.29,2440.35 2146.29,2448.02C2146.29,2455.69 2140.08,2461.91 2132.41,2461.91ZM2049.07,2461.91C2041.4,2461.91 2035.18,2455.69 2035.18,2448.02C2035.18,2440.35 2041.4,2434.14 2049.07,2434.14C2056.74,2434.14 2062.96,2440.35 2062.96,2448.02C2062.96,2455.69 2056.74,2461.91 2049.07,2461.91ZM1965.73,2461.91C1958.06,2461.91 1951.84,2455.69 1951.84,2448.02C1951.84,2440.35 1958.06,2434.14 1965.73,2434.14C1973.41,2434.14 1979.62,2440.35 1979.62,2448.02C1979.62,2455.69 1973.41,2461.91 1965.73,2461.91ZM1882.4,2461.91C1874.73,2461.91 1868.51,2455.69 1868.51,2448.02C1868.51,2440.35 1874.73,2434.14 1882.4,2434.14C1890.07,2434.14 1896.29,2440.35 1896.29,2448.02C1896.29,2455.69 1890.07,2461.91 1882.4,2461.91ZM1799.06,2461.91C1791.39,2461.91 1785.17,2455.69 1785.17,2448.02C1785.17,2440.35 1791.39,2434.14 1799.06,2434.14C1806.73,2434.14 1812.95,2440.35 1812.95,2448.02C1812.95,2455.69 1806.73,2461.91 1799.06,2461.91ZM2274.58,2392.47C2272.42,2392.47 2270.29,2392.97 2268.37,2393.93L2246.45,2404.89C2244.52,2405.85 2242.4,2406.36 2240.24,2406.36L1885.68,2406.36C1883.52,2406.36 1881.39,2405.85 1879.47,2404.89L1857.55,2393.93C1855.62,2392.97 1853.5,2392.47 1851.34,2392.47L1664.11,2392.47C1691.89,2489.69 1771.28,2545.25 1771.28,2545.25L2451.86,2545.25C2451.86,2545.25 2493.53,2489.69 2493.53,2392.47L2274.58,2392.47Z" style="fill:rgb(41,41,41);fill-rule:nonzero;"/>
            <path d="M1834.89,2309.13L2220.47,2309.13L2232.37,2336.91L1819.02,2336.91L1834.89,2309.13ZM1904.87,2253.57L2262.71,2253.57L2276.6,2281.35L2412.94,2281.35L2419.11,2309.13L2250.69,2309.13L2238.78,2281.35L1890.98,2281.35L1904.87,2253.57ZM2168.76,2198.01L2328.98,2198.01L2338.24,2253.57L2293.77,2253.57L2279.88,2225.79L2154.88,2225.79L2168.76,2198.01ZM1795.21,2378.58L1803.15,2364.69L2244.28,2364.69L2253.37,2385.9L2262.16,2381.51C2266,2379.59 2270.29,2378.58 2274.58,2378.58L2280.45,2378.58L2262.59,2336.91L2425.28,2336.91L2434.54,2378.58L2463,2378.58L2435.21,2253.57L2366.39,2253.57L2352.5,2170.24L2151.59,2170.24L2123.81,2225.79L1887.7,2225.79L1859.92,2281.35L1818.78,2281.35L1763.22,2378.58L1795.21,2378.58Z" style="fill:rgb(41,41,41);fill-rule:nonzero;"/>
        </g>
    </g>
</svg>
