<?xml version="1.0" encoding="UTF-8" standalone="no"?>
<!DOCTYPE svg PUBLIC "-//W3C//DTD SVG 1.1//EN" "http://www.w3.org/Graphics/SVG/1.1/DTD/svg11.dtd">
<svg width="100%" height="100%" viewBox="0 0 653 237" version="1.1" xmlns="http://www.w3.org/2000/svg" xmlns:xlink="http://www.w3.org/1999/xlink" xml:space="preserve" xmlns:serif="http://www.serif.com/" style="fill-rule:evenodd;clip-rule:evenodd;stroke-linejoin:round;stroke-miterlimit:2;">
    <g transform="matrix(1,0,0,1,-3111.05,-264.16)">
        <g>
            <path d="M3435.14,291.939L3472.17,291.939L3472.17,333.607L3388.84,333.607L3435.14,291.939ZM3486.06,291.939L3513.84,291.939L3513.84,333.607L3486.06,333.607L3486.06,291.939ZM3387.85,347.496C3410.11,347.496 3431.04,356.164 3446.78,371.907L3447.77,372.891C3458.26,383.385 3472.21,389.164 3487.05,389.164L3541.62,389.164L3541.62,291.939L3555.51,291.939L3555.51,264.16L3430.51,264.16L3337.91,347.496L3387.85,347.496Z" style="fill:rgb(41,41,41);fill-rule:nonzero;"/>
            <path d="M3319.39,430.832C3311.72,430.832 3305.5,424.613 3305.5,416.942C3305.5,409.271 3311.72,403.053 3319.39,403.053C3327.06,403.053 3333.28,409.271 3333.28,416.942C3333.28,424.613 3327.06,430.832 3319.39,430.832ZM3249.95,430.832C3242.27,430.832 3236.06,424.613 3236.06,416.942C3236.06,409.271 3242.27,403.053 3249.95,403.053C3257.62,403.053 3263.84,409.271 3263.84,416.942C3263.84,424.613 3257.62,430.832 3249.95,430.832ZM3722.18,403.053L3487.05,403.053C3468.63,403.053 3450.97,395.736 3437.94,382.712L3436.96,381.726C3423.93,368.702 3406.27,361.385 3387.85,361.385L3111.05,361.385C3138.83,458.61 3249.95,500.278 3249.95,500.278L3763.85,500.278L3722.18,403.053Z" style="fill:rgb(41,41,41);fill-rule:nonzero;"/>
        </g>
    </g>
</svg>
