<?xml version="1.0" encoding="UTF-8" standalone="no"?>
<!DOCTYPE svg PUBLIC "-//W3C//DTD SVG 1.1//EN" "http://www.w3.org/Graphics/SVG/1.1/DTD/svg11.dtd">
<svg width="100%" height="100%" viewBox="0 0 570 417" version="1.1" xmlns="http://www.w3.org/2000/svg" xmlns:xlink="http://www.w3.org/1999/xlink" xml:space="preserve" xmlns:serif="http://www.serif.com/" style="fill-rule:evenodd;clip-rule:evenodd;stroke-linejoin:round;stroke-miterlimit:2;">
    <g transform="matrix(1,0,0,1,-417.992,-1396.49)">
        <g>
            <path d="M480.921,1621.32L655.466,1567.57L652.754,1558.76L480.921,1611.68L480.921,1577.05L466.177,1577.05L466.177,1660.39L480.921,1660.39L480.921,1621.32Z" style="fill:rgb(255,110,0);fill-rule:nonzero;"/>
            <path d="M848.56,1563.16L848.56,1632.61L793.003,1632.61C793.003,1632.61 779.113,1604.83 779.113,1563.16L848.56,1563.16ZM876.339,1563.16L904.117,1563.16L904.117,1632.61L876.339,1632.61L876.339,1563.16ZM765.224,1702.06L931.896,1702.06L932.013,1535.4L834.749,1535.4C834.749,1535.4 751.335,1535.25 751.335,1535.4C751.452,1603.3 765.341,1637.24 765.341,1637.24L765.224,1702.06Z" style="fill:rgb(255,110,0);fill-rule:nonzero;"/>
            <rect x="806.892" y="1396.49" width="13.889" height="125.01" style="fill:rgb(255,110,0);fill-rule:nonzero;"/>
            <rect x="848.56" y="1438.16" width="13.889" height="83.34" style="fill:rgb(255,110,0);fill-rule:nonzero;"/>
            <path d="M612.442,1743.72C604.771,1743.72 598.553,1737.51 598.553,1729.84C598.553,1722.16 604.771,1715.95 612.442,1715.95C620.113,1715.95 626.331,1722.16 626.331,1729.84C626.331,1737.51 620.113,1743.72 612.442,1743.72ZM542.996,1743.72C535.325,1743.72 529.106,1737.51 529.106,1729.84C529.106,1722.16 535.325,1715.95 542.996,1715.95C550.667,1715.95 556.885,1722.16 556.885,1729.84C556.885,1737.51 550.667,1743.72 542.996,1743.72ZM738.432,1715.95C720.015,1715.95 702.35,1708.63 689.327,1695.61L688.34,1694.62C675.316,1681.6 657.652,1674.28 639.234,1674.28L417.992,1674.28L487.438,1813.17L973.564,1813.17L987.453,1715.95L738.432,1715.95Z" style="fill:rgb(255,110,0);fill-rule:nonzero;"/>
        </g>
    </g>
</svg>
