<?xml version="1.0" encoding="UTF-8" standalone="no"?>
<!DOCTYPE svg PUBLIC "-//W3C//DTD SVG 1.1//EN" "http://www.w3.org/Graphics/SVG/1.1/DTD/svg11.dtd">
<svg width="100%" height="100%" viewBox="0 0 763 289" version="1.1" xmlns="http://www.w3.org/2000/svg" xmlns:xlink="http://www.w3.org/1999/xlink" xml:space="preserve" xmlns:serif="http://www.serif.com/" style="fill-rule:evenodd;clip-rule:evenodd;stroke-linejoin:round;stroke-miterlimit:2;">
    <g transform="matrix(1,0,0,1,-1697.6,-867.773)">
        <g>
            <path d="M2102.68,1089.06C2095.29,1089.06 2089.3,1083.07 2089.3,1075.68C2089.3,1068.29 2095.29,1062.31 2102.68,1062.31C2110.07,1062.31 2116.05,1068.29 2116.05,1075.68C2116.05,1083.07 2110.07,1089.06 2102.68,1089.06ZM2035.8,1089.06C2028.41,1089.06 2022.42,1083.07 2022.42,1075.68C2022.42,1068.29 2028.41,1062.31 2035.8,1062.31C2043.18,1062.31 2049.17,1068.29 2049.17,1075.68C2049.17,1083.07 2043.18,1089.06 2035.8,1089.06ZM1968.92,1089.06C1961.53,1089.06 1955.54,1083.07 1955.54,1075.68C1955.54,1068.29 1961.53,1062.31 1968.92,1062.31C1976.3,1062.31 1982.29,1068.29 1982.29,1075.68C1982.29,1083.07 1976.3,1089.06 1968.92,1089.06ZM1902.04,1089.06C1894.65,1089.06 1888.66,1083.07 1888.66,1075.68C1888.66,1068.29 1894.65,1062.31 1902.04,1062.31C1909.42,1062.31 1915.41,1068.29 1915.41,1075.68C1915.41,1083.07 1909.42,1089.06 1902.04,1089.06ZM1835.15,1089.06C1827.77,1089.06 1821.78,1083.07 1821.78,1075.68C1821.78,1068.29 1827.77,1062.31 1835.15,1062.31C1842.54,1062.31 1848.53,1068.29 1848.53,1075.68C1848.53,1083.07 1842.54,1089.06 1835.15,1089.06ZM2460.04,1115.81L2421.58,1115.81L2379.78,1048.93L2209.69,1048.93C2198.98,1048.93 2188.43,1046.36 2178.92,1041.43L2156.22,1029.67C2146.71,1024.75 2136.16,1022.18 2125.45,1022.18L1697.6,1022.18C1724.35,1115.81 1831.36,1155.94 1831.36,1155.94L2446.66,1155.94L2438.3,1142.56L2460.04,1142.56L2460.04,1115.81Z" style="fill:rgb(41,41,41);fill-rule:nonzero;"/>
            <path d="M2232.64,1005.04L2232.64,975.357L2275.12,975.357L2291.91,1005.04L2232.64,1005.04ZM2105.25,948.605L2130.32,928.541L2262.33,928.541L2267.34,948.605L2105.25,948.605ZM2205.89,975.357L2205.89,998.129L2132.32,998.129L2132.32,975.357L2205.89,975.357ZM2092.19,998.129L1965.62,998.129C2015.46,975.857 2075.15,975.357 2075.92,975.357L2092.19,975.357L2092.19,998.129ZM2298.68,963.633L2283.22,901.788L2217.53,901.788L2217.53,867.773L2188.5,867.773L2154.48,901.788L2120.95,901.788L2061.74,949.153C2029.74,951.145 1951.35,960.637 1905.95,1006.03L1908.73,1008.8L2125.45,1008.8C2138.25,1008.8 2151.01,1011.91 2162.37,1017.79L2185.07,1029.56C2192.65,1033.48 2201.16,1035.55 2209.69,1035.55L2339.77,1035.55L2298.68,963.633Z" style="fill:rgb(41,41,41);fill-rule:nonzero;"/>
        </g>
    </g>
</svg>
