<?xml version="1.0" encoding="UTF-8" standalone="no"?>
<!DOCTYPE svg PUBLIC "-//W3C//DTD SVG 1.1//EN" "http://www.w3.org/Graphics/SVG/1.1/DTD/svg11.dtd">
<svg width="100%" height="100%" viewBox="0 0 763 295" version="1.1" xmlns="http://www.w3.org/2000/svg" xmlns:xlink="http://www.w3.org/1999/xlink" xml:space="preserve" xmlns:serif="http://www.serif.com/" style="fill-rule:evenodd;clip-rule:evenodd;stroke-linejoin:round;stroke-miterlimit:2;">
    <g transform="matrix(1,0,0,1,-321.365,-861.663)">
        <g>
            <path d="M723.949,1095.88C715.932,1095.88 709.435,1089.38 709.435,1081.37C709.435,1073.35 715.932,1066.85 723.949,1066.85C731.963,1066.85 738.462,1073.35 738.462,1081.37C738.462,1089.38 731.963,1095.88 723.949,1095.88ZM651.38,1095.88C643.366,1095.88 636.867,1089.38 636.867,1081.37C636.867,1073.35 643.366,1066.85 651.38,1066.85C659.397,1066.85 665.894,1073.35 665.894,1081.37C665.894,1089.38 659.397,1095.88 651.38,1095.88ZM578.813,1095.88C570.798,1095.88 564.301,1089.38 564.301,1081.37C564.301,1073.35 570.798,1066.85 578.813,1066.85C586.829,1066.85 593.326,1073.35 593.326,1081.37C593.326,1089.38 586.829,1095.88 578.813,1095.88ZM506.245,1095.88C498.23,1095.88 491.731,1089.38 491.731,1081.37C491.731,1073.35 498.23,1066.85 506.245,1066.85C514.261,1066.85 520.76,1073.35 520.76,1081.37C520.76,1089.38 514.261,1095.88 506.245,1095.88ZM433.677,1095.88C425.664,1095.88 419.165,1089.38 419.165,1081.37C419.165,1073.35 425.664,1066.85 433.677,1066.85C441.695,1066.85 448.192,1073.35 448.192,1081.37C448.192,1089.38 441.695,1095.88 433.677,1095.88ZM1084.08,1142.03L1083.82,1115.28L1042.95,1115.68L999.705,1052.34L840.057,1052.34C828.441,1052.34 816.993,1049.55 806.678,1044.21L782.039,1031.44C771.726,1026.1 761.018,1022.18 749.402,1022.18L321.365,1022.18C350.392,1123.77 455.126,1155.94 455.126,1155.94L1070.43,1155.94L1061.09,1142.26L1084.08,1142.03Z" style="fill:rgb(72,49,170);fill-rule:nonzero;"/>
            <path d="M699.757,928.541L848.142,928.541L861.519,955.293L657.291,955.293L699.757,928.541ZM583.216,1008.8L601.729,990.294L615.64,981.532L615.64,982.045L669.145,982.045L669.145,1008.8L695.897,1008.8L695.897,982.045L775.72,982.045L775.749,1014.07C780.453,1015.86 784.767,1017.79 788.191,1019.57L802.515,1026.99L802.472,982.045L877.083,982.045L926.744,1038.96L962.241,1038.96L894.368,961.168L864.68,901.788L821.968,901.788L821.968,861.663L792.943,861.663L752.816,901.788L692.037,901.788L586.197,968.453L545.432,1008.8L583.216,1008.8Z" style="fill:rgb(72,49,170);fill-rule:nonzero;"/>
        </g>
    </g>
</svg>
