<?xml version="1.0" encoding="UTF-8" standalone="no"?>
<!DOCTYPE svg PUBLIC "-//W3C//DTD SVG 1.1//EN" "http://www.w3.org/Graphics/SVG/1.1/DTD/svg11.dtd">
<svg width="100%" height="100%" viewBox="0 0 764 337" version="1.1" xmlns="http://www.w3.org/2000/svg" xmlns:xlink="http://www.w3.org/1999/xlink" xml:space="preserve" xmlns:serif="http://www.serif.com/" style="fill-rule:evenodd;clip-rule:evenodd;stroke-linejoin:round;stroke-miterlimit:2;">
    <g transform="matrix(1,0,0,1,-4447,-1476.71)">
        <g>
            <path d="M5197.02,1813.17L4530.33,1813.17L4447,1715.95L4683.12,1715.95L4710.9,1743.72L5210.91,1743.72L5197.02,1813.17Z" style="fill:rgb(41,41,41);fill-rule:nonzero;"/>
            <path d="M4624.81,1702.06L4613.67,1668.63L4558.11,1668.63L4555.56,1676.28L4506.86,1660.39L4502.56,1673.59L4551.17,1689.46L4546.97,1702.06L4624.81,1702.06Z" style="fill:rgb(41,41,41);fill-rule:nonzero;"/>
            <path d="M4797.11,1666.34L4824.88,1694.12L5002.57,1694.12L4988.68,1638.56L4970.15,1638.56L4951.55,1574.79L4944.74,1574.79L4942.42,1565.48C4953.61,1556.28 4960.9,1542.5 4960.9,1526.88C4960.9,1499.17 4938.44,1476.71 4910.73,1476.71C4883.02,1476.71 4860.56,1499.17 4860.56,1526.88C4860.56,1542.5 4867.85,1556.28 4879.04,1565.48L4876.72,1574.79L4869.91,1574.79L4864,1598.08L4863.68,1596.89L4808.12,1596.89L4808.12,1555.23L4794.23,1555.23L4794.23,1596.89L4780.34,1596.89L4775.71,1610.78L4835.9,1610.78L4835.9,1624.67L4771.08,1624.67L4766.45,1638.56L4738.67,1638.56L4720.15,1666.34L4797.11,1666.34Z" style="fill:rgb(41,41,41);fill-rule:nonzero;"/>
            <path d="M4819.13,1708.01L4791.36,1680.23L4669.23,1680.23L4654.68,1702.06L4688.87,1702.06L4716.65,1729.84L5085.91,1729.84L5085.91,1708.01L4819.13,1708.01Z" style="fill:rgb(41,41,41);fill-rule:nonzero;"/>
        </g>
    </g>
</svg>
