<?xml version="1.0" encoding="UTF-8" standalone="no"?>
<!DOCTYPE svg PUBLIC "-//W3C//DTD SVG 1.1//EN" "http://www.w3.org/Graphics/SVG/1.1/DTD/svg11.dtd">
<svg width="100%" height="100%" viewBox="0 0 806 292" version="1.1" xmlns="http://www.w3.org/2000/svg" xmlns:xlink="http://www.w3.org/1999/xlink" xml:space="preserve" xmlns:serif="http://www.serif.com/" style="fill-rule:evenodd;clip-rule:evenodd;stroke-linejoin:round;stroke-miterlimit:2;">
    <g transform="matrix(1,0,0,1,-3034.66,-1521.5)">
        <g>
            <path d="M3812.46,1813.17L3145.78,1813.17L3034.66,1702.06L3256.89,1702.06L3270.78,1715.95L3645.79,1715.95L3659.68,1729.84L3840.24,1729.84L3812.46,1813.17Z" style="fill:rgb(41,41,41);fill-rule:nonzero;"/>
            <path d="M3626.3,1702.06L3614.7,1664.6L3425.55,1664.6L3408.35,1636.82L3305.17,1636.82L3278.25,1702.06L3626.3,1702.06Z" style="fill:rgb(41,41,41);fill-rule:nonzero;"/>
            <path d="M3447.37,1577.05L3423.56,1577.05L3423.56,1521.5L3409.67,1521.5L3409.67,1577.05L3358.08,1577.05L3346.29,1622.93L3416.09,1622.93L3433.28,1650.71L3460.9,1650.71L3447.37,1577.05Z" style="fill:rgb(41,41,41);fill-rule:nonzero;"/>
            <path d="M3238.37,1688.17L3229.11,1660.39L3173.55,1660.39L3171,1668.04L3122.31,1652.15L3118,1665.35L3166.61,1681.22L3164.29,1688.17L3238.37,1688.17Z" style="fill:rgb(41,41,41);fill-rule:nonzero;"/>
            <path d="M3618.01,1623.68L3613.7,1610.48L3565,1626.37L3562.45,1618.72L3506.9,1618.72L3496.23,1650.71L3573.12,1650.71L3569.4,1639.55L3618.01,1623.68Z" style="fill:rgb(41,41,41);fill-rule:nonzero;"/>
        </g>
    </g>
</svg>
