<?xml version="1.0" encoding="UTF-8" standalone="no"?>
<!DOCTYPE svg PUBLIC "-//W3C//DTD SVG 1.1//EN" "http://www.w3.org/Graphics/SVG/1.1/DTD/svg11.dtd">
<svg width="100%" height="100%" viewBox="0 0 834 320" version="1.1" xmlns="http://www.w3.org/2000/svg" xmlns:xlink="http://www.w3.org/1999/xlink" xml:space="preserve" xmlns:serif="http://www.serif.com/" style="fill-rule:evenodd;clip-rule:evenodd;stroke-linejoin:round;stroke-miterlimit:2;">
    <g transform="matrix(1,0,0,1,-3020.77,-2225.8)">
        <g>
            <path d="M3826.35,2545.25L3090.22,2545.25L3020.77,2406.36L3169.2,2406.36C3183.93,2406.36 3198.06,2412.21 3208.48,2422.63L3231.49,2445.64C3241.91,2456.06 3256.05,2461.91 3270.78,2461.91L3686.48,2461.91C3695.77,2461.91 3704.44,2457.27 3709.59,2449.54L3720.88,2432.62C3726.03,2424.89 3734.71,2420.25 3743.99,2420.25L3854.13,2420.25L3826.35,2545.25Z" style="fill:rgb(217,134,134);fill-rule:nonzero;"/>
            <rect x="3534.68" y="2378.58" width="13.89" height="69.44" style="fill:rgb(217,134,134);fill-rule:nonzero;"/>
            <rect x="3368" y="2378.58" width="13.89" height="69.44" style="fill:rgb(217,134,134);fill-rule:nonzero;"/>
            <rect x="3395.78" y="2434.14" width="125.01" height="13.88" style="fill:rgb(217,134,134);fill-rule:nonzero;"/>
            <path d="M3241.32,2435.82C3249.19,2443.69 3259.65,2448.02 3270.78,2448.02L3354.12,2448.02L3354.12,2434.14L3239.63,2434.14L3241.32,2435.82Z" style="fill:rgb(217,134,134);fill-rule:nonzero;"/>
            <path d="M3784.68,2336.91L3770.79,2336.91L3770.79,2309.13L3784.68,2309.13L3784.68,2336.91ZM3784.68,2392.47L3770.79,2392.47L3770.79,2378.58L3784.68,2378.58L3784.68,2392.47ZM3756.9,2336.91L3709.68,2336.91L3704.13,2309.13L3756.9,2309.13L3756.9,2336.91ZM3756.9,2392.47L3743.02,2392.47L3743.02,2378.58L3756.9,2378.58L3756.9,2392.47ZM3729.13,2392.47L3715.24,2392.47L3715.24,2378.58L3729.13,2378.58L3729.13,2392.47ZM3798.57,2336.91L3798.57,2281.35L3756.9,2281.35L3756.9,2225.8L3743.02,2225.8L3743.02,2281.35L3729.13,2281.35L3729.13,2253.57L3715.24,2253.57L3715.24,2281.35L3687.46,2281.35L3687.46,2309.13L3690.24,2309.13L3701.35,2364.69L3691.04,2447.16C3693.85,2446.17 3696.34,2444.39 3698.04,2441.84L3709.32,2424.91C3717.07,2413.29 3730.03,2406.36 3743.99,2406.36L3806.59,2406.36L3798.57,2336.91Z" style="fill:rgb(217,134,134);fill-rule:nonzero;"/>
            <path d="M3678.67,2434.14L3562.45,2434.14L3562.45,2448.02L3676.93,2448.02L3678.67,2434.14Z" style="fill:rgb(217,134,134);fill-rule:nonzero;"/>
        </g>
    </g>
</svg>
