<?xml version="1.0" encoding="UTF-8" standalone="no"?>
<!DOCTYPE svg PUBLIC "-//W3C//DTD SVG 1.1//EN" "http://www.w3.org/Graphics/SVG/1.1/DTD/svg11.dtd">
<svg width="100%" height="100%" viewBox="0 0 653 334" version="1.1" xmlns="http://www.w3.org/2000/svg" xmlns:xlink="http://www.w3.org/1999/xlink" xml:space="preserve" xmlns:serif="http://www.serif.com/" style="fill-rule:evenodd;clip-rule:evenodd;stroke-linejoin:round;stroke-miterlimit:2;">
    <g transform="matrix(1,0,0,1,-4502.56,-822.596)">
        <g>
            <rect x="5119.57" y="1030.93" width="16" height="13.89" style="fill:rgb(41,139,202);fill-rule:nonzero;"/>
            <rect x="5064.02" y="1030.93" width="16" height="13.89" style="fill:rgb(41,139,202);fill-rule:nonzero;"/>
            <path d="M4655.34,1072.6C4647.67,1072.6 4641.45,1066.38 4641.45,1058.71C4641.45,1051.04 4647.67,1044.82 4655.34,1044.82C4663.01,1044.82 4669.23,1051.04 4669.23,1058.71C4669.23,1066.38 4663.01,1072.6 4655.34,1072.6ZM4599.78,1072.6C4592.11,1072.6 4585.89,1066.38 4585.89,1058.71C4585.89,1051.04 4592.11,1044.82 4599.78,1044.82C4607.45,1044.82 4613.67,1051.04 4613.67,1058.71C4613.67,1066.38 4607.45,1072.6 4599.78,1072.6ZM4766.45,1058.71C4751.72,1058.71 4737.59,1055.69 4727.17,1045.28L4704.15,1022.26C4693.74,1011.84 4683.96,1003.16 4669.23,1003.16L4502.56,1003.16C4502.56,1097.55 4585.89,1155.94 4585.89,1155.94L5141.46,1155.94C5141.46,1155.94 5155.35,1128.16 5155.35,1058.71L4766.45,1058.71Z" style="fill:rgb(41,139,202);fill-rule:nonzero;"/>
            <path d="M4933.08,975.378L4891.42,975.378L4891.42,947.599L4933.12,947.599L4933.08,975.378ZM4877.57,975.378L4826.68,975.378C4826.68,975.378 4822.05,966.118 4822.01,947.599L4877.61,947.599L4877.57,975.378ZM4877.53,919.821C4877.53,919.821 4794.11,919.704 4794.11,919.821C4794.23,975.378 4808.12,1003.16 4808.12,1003.16L4808.12,1044.82L4960.9,1044.82L4960.9,919.821L4877.53,919.821Z" style="fill:rgb(41,139,202);fill-rule:nonzero;"/>
            <rect x="4835.9" y="822.596" width="13.89" height="83.335" style="fill:rgb(41,139,202);fill-rule:nonzero;"/>
            <rect x="4516.45" y="933.71" width="13.88" height="55.557" style="fill:rgb(41,139,202);fill-rule:nonzero;"/>
        </g>
    </g>
</svg>
