<?xml version="1.0" encoding="UTF-8" standalone="no"?>
<!DOCTYPE svg PUBLIC "-//W3C//DTD SVG 1.1//EN" "http://www.w3.org/Graphics/SVG/1.1/DTD/svg11.dtd">
<svg width="100%" height="100%" viewBox="0 0 764 389" version="1.1" xmlns="http://www.w3.org/2000/svg" xmlns:xlink="http://www.w3.org/1999/xlink" xml:space="preserve" xmlns:serif="http://www.serif.com/" style="fill-rule:evenodd;clip-rule:evenodd;stroke-linejoin:round;stroke-miterlimit:2;">
    <g transform="matrix(1,0,0,1,-3055.5,-767.039)">
        <g>
            <path d="M3736.07,1100.38C3728.4,1100.38 3722.18,1094.16 3722.18,1086.49C3722.18,1078.82 3728.4,1072.6 3736.07,1072.6C3743.74,1072.6 3749.96,1078.82 3749.96,1086.49C3749.96,1094.16 3743.74,1100.38 3736.07,1100.38ZM3666.62,1100.38C3658.95,1100.38 3652.74,1094.16 3652.74,1086.49C3652.74,1078.82 3658.95,1072.6 3666.62,1072.6C3674.3,1072.6 3680.51,1078.82 3680.51,1086.49C3680.51,1094.16 3674.3,1100.38 3666.62,1100.38ZM3333.28,1100.38C3325.61,1100.38 3319.39,1094.16 3319.39,1086.49C3319.39,1078.82 3325.61,1072.6 3333.28,1072.6C3340.95,1072.6 3347.17,1078.82 3347.17,1086.49C3347.17,1094.16 3340.95,1100.38 3333.28,1100.38ZM3263.84,1100.38C3256.16,1100.38 3249.95,1094.16 3249.95,1086.49C3249.95,1078.82 3256.16,1072.6 3263.84,1072.6C3271.51,1072.6 3277.72,1078.82 3277.72,1086.49C3277.72,1094.16 3271.51,1100.38 3263.84,1100.38ZM3194.39,1100.38C3186.72,1100.38 3180.5,1094.16 3180.5,1086.49C3180.5,1078.82 3186.72,1072.6 3194.39,1072.6C3202.06,1072.6 3208.28,1078.82 3208.28,1086.49C3208.28,1094.16 3202.06,1100.38 3194.39,1100.38ZM3333.28,1044.82L3291.61,1017.05L3055.5,1017.05C3083.27,1114.27 3180.5,1155.94 3180.5,1155.94L3777.74,1155.94C3777.74,1155.94 3819.41,1114.27 3819.41,1044.82L3333.28,1044.82Z" style="fill:rgb(41,41,41);fill-rule:nonzero;"/>
            <path d="M3642.54,1030.94L3645.08,1023.99L3770.8,1023.99L3770.8,1030.94L3784.69,1030.94L3784.69,1010.1L3635.38,1010.1L3627.75,1030.94L3642.54,1030.94Z" style="fill:rgb(41,41,41);fill-rule:nonzero;"/>
            <path d="M3347.17,989.267L3388.84,989.267L3388.84,1003.16L3347.17,1003.16L3347.17,989.267ZM3347.17,892.042L3374.95,892.042L3374.95,905.932L3347.17,905.932L3347.17,892.042ZM3416.62,989.267L3458.28,989.267L3458.28,1003.16L3416.62,1003.16L3416.62,989.267ZM3430.51,919.821L3458.28,919.821L3458.28,933.71L3430.51,933.71L3430.51,919.821ZM3472.17,919.821L3486.06,919.821L3486.06,933.71L3472.17,933.71L3472.17,919.821ZM3499.95,919.821L3513.84,919.821L3513.84,933.71L3499.95,933.71L3499.95,919.821ZM3527.73,989.267L3527.73,1003.16L3486.06,1003.16L3486.06,989.267L3527.73,989.267ZM3256.89,1003.16L3295.82,1003.16L3299.32,1005.49L3337.49,1030.94L3583.29,1030.94L3570.47,961.489L3555.51,961.489L3541.62,919.821L3527.73,878.153L3514.62,878.231L3500.79,838.871C3508.79,831.278 3513.84,820.607 3513.84,808.707C3513.84,785.694 3495.19,767.039 3472.17,767.039C3449.16,767.039 3430.51,785.694 3430.51,808.707C3430.51,820.624 3435.57,831.304 3443.59,838.898L3430.51,878.153L3416.62,878.153L3402.73,919.821L3388.84,919.821L3388.84,878.153L3374.95,878.153L3374.95,822.596L3361.06,822.596L3361.06,878.153L3319.39,878.153L3314.76,892.042L3333.28,892.042L3333.28,905.932L3310.13,905.932L3305.5,919.821L3277.72,919.821L3277.72,933.71L3347.17,933.71L3347.17,947.599L3277.72,947.599L3277.72,961.489L3256.89,1003.16Z" style="fill:rgb(41,41,41);fill-rule:nonzero;"/>
        </g>
    </g>
</svg>
