<?xml version="1.0" encoding="UTF-8" standalone="no"?>
<!DOCTYPE svg PUBLIC "-//W3C//DTD SVG 1.1//EN" "http://www.w3.org/Graphics/SVG/1.1/DTD/svg11.dtd">
<svg width="100%" height="100%" viewBox="0 0 723 223" version="1.1" xmlns="http://www.w3.org/2000/svg" xmlns:xlink="http://www.w3.org/1999/xlink" xml:space="preserve" xmlns:serif="http://www.serif.com/" style="fill-rule:evenodd;clip-rule:evenodd;stroke-linejoin:round;stroke-miterlimit:2;">
    <g transform="matrix(1,0,0,1,-341.601,-278.049)">
        <g>
            <g>
                <path d="M636.82,447.083C628.495,447.083 621.747,440.335 621.747,432.013C621.747,423.688 628.495,416.942 636.82,416.942C645.141,416.942 651.889,423.688 651.889,432.013C651.889,440.335 645.141,447.083 636.82,447.083ZM565.01,447.083C556.688,447.083 549.94,440.335 549.94,432.013C549.94,423.688 556.688,416.942 565.01,416.942C573.334,416.942 580.079,423.688 580.079,432.013C580.079,440.335 573.334,447.083 565.01,447.083ZM495.563,447.083C487.242,447.083 480.494,440.335 480.494,432.013C480.494,423.688 487.242,416.942 495.563,416.942C503.888,416.942 510.633,423.688 510.633,432.013C510.633,440.335 503.888,447.083 495.563,447.083ZM994.397,389.164L355.49,389.164C397.158,486.389 536.051,500.278 536.051,500.278L1063.84,500.278L994.397,389.164Z" style="fill:rgb(41,41,41);fill-rule:nonzero;"/>
                <path d="M372.069,375.274L365.124,354.44L431.881,354.44L431.881,375.274L445.771,375.274L445.771,354.44L478.181,354.44L505.96,375.274L529.103,375.274L482.806,340.551L341.601,340.551L341.601,354.44L350.489,354.44L357.433,375.274L372.069,375.274Z" style="fill:rgb(41,41,41);fill-rule:nonzero;"/>
                <path d="M775.77,333.607L793.003,333.607L793.003,375.274L806.892,375.274L806.892,333.607L887.766,333.607L904.432,375.274L934.357,375.274L906.579,305.828L861.408,305.828L861.408,278.049L831.27,278.049L803.491,305.828L768.568,305.828L643.568,375.274L700.766,375.274L775.77,333.607Z" style="fill:rgb(41,41,41);fill-rule:nonzero;"/>
            </g>
        </g>
    </g>
</svg>
