<?xml version="1.0" encoding="UTF-8" standalone="no"?>
<!DOCTYPE svg PUBLIC "-//W3C//DTD SVG 1.1//EN" "http://www.w3.org/Graphics/SVG/1.1/DTD/svg11.dtd">
<svg width="100%" height="100%" viewBox="0 0 709 181" version="1.1" xmlns="http://www.w3.org/2000/svg" xmlns:xlink="http://www.w3.org/1999/xlink" xml:space="preserve" xmlns:serif="http://www.serif.com/" style="fill-rule:evenodd;clip-rule:evenodd;stroke-linejoin:round;stroke-miterlimit:2;">
    <g transform="matrix(1,0,0,1,-1724.64,-319.717)">
        <g>
            <path d="M2215.97,347.496L2276.01,347.496L2292.67,389.164L2322.6,389.164L2305.93,347.496L2327.08,347.496L2327.08,319.717L2215.97,319.717C2210.76,319.717 2090.81,320.521 2030.21,375.274L2079.96,375.274C2136.62,347.962 2215,347.496 2215.97,347.496Z" style="fill:rgb(200,165,99);fill-rule:nonzero;"/>
            <path d="M2015.14,444.721C2006.81,444.721 2000.07,437.975 2000.07,429.65C2000.07,421.328 2006.81,414.58 2015.14,414.58C2023.46,414.58 2030.21,421.328 2030.21,429.65C2030.21,437.975 2023.46,444.721 2015.14,444.721ZM1943.33,444.721C1935.01,444.721 1928.26,437.975 1928.26,429.65C1928.26,421.328 1935.01,414.58 1943.33,414.58C1951.65,414.58 1958.4,421.328 1958.4,429.65C1958.4,437.975 1951.65,444.721 1943.33,444.721ZM1873.88,444.721C1865.56,444.721 1858.81,437.975 1858.81,429.65C1858.81,421.328 1865.56,414.58 1873.88,414.58C1882.21,414.58 1888.95,421.328 1888.95,429.65C1888.95,437.975 1882.21,444.721 1873.88,444.721ZM2363.55,403.053L2169.1,403.053C2162.63,403.053 2156.25,401.546 2150.47,398.653L2140.28,393.563C2134.5,390.669 2128.12,389.164 2121.65,389.164L1724.64,389.164C1766.31,486.389 1891.31,500.278 1891.31,500.278L2433,500.278L2363.55,403.053Z" style="fill:rgb(200,165,99);fill-rule:nonzero;"/>
        </g>
    </g>
</svg>
