<?xml version="1.0" encoding="UTF-8"?>
<svg id="Layer_1" xmlns="http://www.w3.org/2000/svg" version="1.1" viewBox="0 0 3364.8 4283.3">
  <!-- Generator: Adobe Illustrator 29.4.0, SVG Export Plug-In . SVG Version: 2.1.0 Build 152)  -->
  <circle cx="1682.4" cy="1682.4" r="1632.4" fill="#e0e1dd" stroke="#8f001c" stroke-miterlimit="10" stroke-width="100"/>
  <path d="M1683.2,4214.2l-711.9-1062s441,162.6,711.1,162.6,711.1-162.6,711.1-162.6l-710.4,1062h0Z" fill="#8f001c" stroke="#8f001c" stroke-miterlimit="10" stroke-width="77"/>
  <path d="M2786.8,2226.9l-148.3-490.5c-12.2-40.3-70.5-53.8-99.1-22.9l-348.3,375.9c-25.8,27.9-7.8,71.9,33.4,81.4l108.9,25.1c-112.2,192.8-305.6,326.1-523.6,363.9v-873.9h217.6c33.8,0,66.2-13.4,90.1-37.3,23.9-23.9,37.3-56.3,37.3-90.1s-13.4-66.2-37.3-90.1-56.3-37.3-90.1-37.3h-217.6v-136.5c4.9-1.8,9.8-3.8,14.7-5.8,43.5-18.4,82.5-44.7,116-78.2,33.5-33.5,59.8-72.5,78.2-116,19.1-45.1,28.7-92.9,28.7-142.1s-9.7-97.1-28.7-142.1c-18.4-43.5-44.7-82.5-78.2-116-33.5-33.5-72.5-59.8-116-78.2-45.1-19.1-92.9-28.7-142.1-28.7s-97.1,9.7-142.1,28.7c-43.5,18.4-82.5,44.7-116,78.2-33.5,33.5-59.8,72.5-78.2,116-19.1,45.1-28.7,92.9-28.7,142.1s9.7,97.1,28.7,142.1c18.4,43.5,44.7,82.5,78.2,116,33.5,33.5,72.5,59.8,116,78.2,4.9,2.1,9.8,4,14.7,5.8v136.5h-217.6c-33.8,0-66.2,13.4-90.1,37.3-23.9,23.9-37.3,56.3-37.3,90.1s13.4,66.2,37.3,90.1c23.9,23.9,56.3,37.3,90.1,37.3h217.6v873.9c-218-37.8-411.4-171.1-523.6-363.9l108.9-25.1c41.2-9.5,59.3-53.5,33.4-81.4l-348.3-375.9c-28.6-30.9-86.9-17.5-99.1,22.9l-148.3,490.5c-11,36.4,24.5,68,65.7,58.5l130.8-30.2c39.3,81.6,89.5,157.6,149.3,226,61.7,70.6,132.8,132.2,211.4,183.1,163,105.6,352.2,161.5,547.2,161.5s384.2-55.8,547.2-161.5c78.6-50.9,149.7-112.5,211.4-183.1,59.8-68.4,110-144.4,149.3-226l130.8,30.2c41.2,9.5,76.7-22.1,65.7-58.5ZM1682.4,816.7c74.8,0,135.6,60.9,135.6,135.6s-60.9,135.6-135.6,135.6-135.6-60.9-135.6-135.6,60.9-135.6,135.6-135.6Z" fill="#8f001c"/>
</svg>