<svg xmlns="http://www.w3.org/2000/svg" viewBox="0 0 64 64"><g id="Line"><path d="M57,56a1,1,0,0,1-2,0,3,3,0,0,0-6,0,1,1,0,0,1-2,0,3,3,0,0,0-6,0,1,1,0,0,1-2,0,3,3,0,0,0-6,0,1,1,0,0,1-2,0,3,3,0,0,0-6,0,1,1,0,0,1-2,0,3,3,0,0,0-6,0,1,1,0,0,1-2,0,3,3,0,0,0-6,0,1,1,0,0,1-2,0,5,5,0,0,1,9-3,5,5,0,0,1,8,0,5,5,0,0,1,8,0,5,5,0,0,1,8,0,5,5,0,0,1,8,0,5,5,0,0,1,9,3Zm3-24v4A13,13,0,0,1,47,49H19A15,15,0,0,1,4.18,36.19a1.29,1.29,0,0,1,0-.19v0A14.16,14.16,0,0,1,4,34V32a3,3,0,0,1,3-3h3V25H5a1,1,0,0,1,0-2H25a1,1,0,0,1,0,2H20v4h6.38L31,19.76A5,5,0,0,1,35.47,17H40V10a3,3,0,0,1,3-3h6a3,3,0,0,1,3,3v2a3,3,0,0,1-3,3H42v2h9a5,5,0,0,1,5,5v7h1A3,3,0,0,1,60,32ZM42,13h7a1,1,0,0,0,1-1V10a1,1,0,0,0-1-1H43a1,1,0,0,0-1,1ZM28.62,29H54V22a3,3,0,0,0-3-3H35.47a3,3,0,0,0-2.68,1.66ZM18,25H16v4h2Zm-6,4h2V25H12ZM6,34c0,.34,0,.67,0,1H58V32a1,1,0,0,0-1-1H7a1,1,0,0,0-1,1Zm52,3H6.36A13,13,0,0,0,19,47H47A11,11,0,0,0,58,37ZM50,24a3,3,0,0,1-3,3H39a3,3,0,0,1,0-6h8A3,3,0,0,1,50,24Zm-2,0a1,1,0,0,0-1-1H39a1,1,0,0,0,0,2h8A1,1,0,0,0,48,24Z"/></g></svg>