<?xml version="1.0" encoding="UTF-8"?>
<svg id="Layer_1" xmlns="http://www.w3.org/2000/svg" version="1.1" viewBox="0 0 3364.8 4283.3">
  <!-- Generator: Adobe Illustrator 29.4.0, SVG Export Plug-In . SVG Version: 2.1.0 Build 152)  -->
  <circle cx="1682.4" cy="1682.4" r="1632.4" fill="#e0e1dd" stroke="#0d1b2a" stroke-miterlimit="10" stroke-width="100"/>
  <path d="M1683.2,4214.2l-711.9-1062s441,162.6,711.1,162.6,711.1-162.6,711.1-162.6l-710.4,1062h0Z" fill="#0d1b2a" stroke="#0d1b2a" stroke-miterlimit="10" stroke-width="77"/>
  <path d="M3212.1,1640.1c-13.3-17.9-35.7-34.1-58.2-37.3-28.3-4.1-145.3,14.5-180.8,18.4-41.1,4.5-82.4,6.1-123.4,10.4-1.3-9.1-4-17.9-11.7-23.7-20.9-16-63.5-8.4-88.3-6.6,5.9-13.6-1.3-39.4-3.9-54.2-14.8-86.1-36-167.9-68.1-249.3-8.8-22.2-18.2-44.1-28.4-65.7s-21-42.8-32.6-63.7c-11.6-20.9-23.8-41.3-36.7-61.4s-26.4-39.7-40.6-58.9c-12.4-17.1-24.4-35.2-38.6-50.8,21-17.3,43.6-33.4,46.2-62.7,1-10.8-1-19.9-4.8-30,42.4-31.8,83-66.3,123.4-100.7,27.8-23.7,57.8-46.2,80.2-75.4,12.5-16.2,22.7-35.2,25.5-55.8,2.7-20-2.5-38.8-14.9-54.7-13.2-17.2-31.6-29.5-53.4-31.9-29.4-3.2-54.1,11.1-76,29.2-50.6,41.8-84.7,100.9-121.2,154.5-14.2,20.7-30.1,40.8-43.2,62.2-21.7-2.2-40.7-1.6-58.4,12.8-12.4,10.1-19.8,23.4-25.1,38.2-167.8-147.4-393.7-246.7-616.8-265,.9-19,6-46.4-8.6-61.4-5.7-5.9-13.6-9.2-21-12.4l15.7-93.3c10.2-59.5,31.3-149.3-6.8-202.2-12.9-18-31.2-28.7-53-32.2-9.4-1.5-18.4-.9-27.8.3-26,10.4-44.1,26.4-55.1,52.6-30.4,72.1,15.7,197.3,18.1,275.3-11.5,3.6-20.9,7.2-27,18.5-8.3,15.3-5.5,38.3-5.4,55.3-45.6,5.7-91.2,11.3-136.1,21-125.4,27.1-252.3,80.5-361,148.8-38.9,24.5-75.1,52.5-112.9,78.6-14.5-21-27.8-33.9-53.6-38.5-5-.9-10-1.6-15-2.1-19.4-19.6-36.8-41.7-54.8-62.6l-91-105.7c-18.4-21.2-38.2-48.4-61.4-64.3-11.4-7.8-25.5-10.9-39.1-10.9-22.1,0-41.3,6.9-56.8,22.8-16.4,16.9-25,38-24.5,61.6.7,31.3,15.2,52.2,37.3,73,64.1,60.5,129.5,107.7,197.9,161.7-4.4,18.6-7.8,36.1,2.4,53.6,8.4,14.4,23.9,24.7,38.2,32.6-29,37.1-58.2,74-83.7,113.7-96.4,149.7-151.1,323.6-169.6,499.9-28.6-3.6-60.3-8-84.6,11.2-9.7,7.7-15.5,17.5-21.5,28.2-66.9-11.4-134-21.9-201.2-31.4-30.5-4.1-64.4-11.4-95.1-9-14.9,1.2-29.1,6.7-41.3,15.3-18.7,13.2-30.1,32.5-33.9,54.9-4.2,24.3-.6,47.9,13.9,68.3,13.5,18.9,35.2,31.9,58.2,35.4,38.8,5.8,100.2-9.3,139.8-15.5,53-8.2,106.4-16.8,159.6-24,13,19.5,26.8,32.8,50.4,37.8,19.4,4.1,38.4,1.4,57.4-3.1,18.9,229.8,103.6,420,242,602.2-17.1,14.6-32.5,29.6-34.8,53.3-1.5,15.5,3.2,28.6,11.3,41.5-55.7,43.3-192.7,136.7-229.5,185-8.7,11.4-13.6,25.1-15.4,39.3-2.9,23,2.9,45.5,17.4,63.7.9,1.1,1.7,2.1,2.7,3.1.9,1,1.9,2,2.8,3,1,1,1.9,1.9,3,2.9,1,.9,2,1.8,3.1,2.7s2.1,1.7,3.2,2.6,2.2,1.6,3.3,2.4c1.1.8,2.3,1.5,3.5,2.2s2.4,1.4,3.6,2.1c1.2.7,2.4,1.3,3.7,1.9s2.5,1.2,3.8,1.7,2.5,1,3.8,1.5,2.6.9,3.9,1.3c1.3.4,2.6.8,4,1.1,1.3.3,2.7.7,4,.9,1.3.3,2.7.5,4,.7,1.4.2,2.7.4,4.1.5,21.8,2.4,42-4.1,58.8-17.9,29.5-24.2,55.3-57.6,79.7-86.9,39-46.7,77.9-94.3,113.2-143.9,17.3,4.4,32.5,4.8,48.3-4.7,11-6.6,20.2-16.9,27.8-27,186.1,145.3,371,221.1,605.2,245.6,0,19.1-1.7,40,13.6,54.4,5.9,5.6,13,8.6,20.3,11.7-9.5,73.6-34.8,188.7-24.7,259.1,2.6,18.2,9,36.4,20.3,51.1.8,1,1.6,2,2.4,3s1.7,2,2.6,2.9,1.8,1.9,2.7,2.8c.9.9,1.9,1.8,2.9,2.6s2,1.7,3,2.5,2.1,1.6,3.1,2.3c1.1.8,2.1,1.5,3.2,2.2s2.2,1.3,3.3,2c1.1.6,2.3,1.3,3.4,1.8,1.2.6,2.3,1.1,3.5,1.6s2.4,1,3.6,1.5,2.4.9,3.7,1.3c1.2.4,2.5.8,3.7,1.1,1.3.3,2.5.6,3.8.9,1.3.3,2.5.5,3.8.7s2.6.4,3.8.5c8.6,1,16.7.1,25.2-1.1,23.2-7.5,40-21.6,51.3-43.4,34.4-66.9-4.8-220-15.9-296.5,12.1-5.3,21.7-11.5,27-24.3,5.4-13.1,4.3-27.5,3.9-41.3,39.1-1.8,78.2-8.9,116.7-16.1,11.4-2.1,22.8-4.4,34.1-6.9,11.3-2.5,22.6-5.1,33.9-8,11.3-2.8,22.5-5.9,33.6-9.1,11.2-3.2,22.3-6.6,33.3-10.1,11.1-3.6,22.1-7.3,33-11.2,10.9-3.9,21.8-8,32.6-12.2s21.5-8.7,32.2-13.3,21.3-9.3,31.8-14.3c10.5-4.9,21-10,31.3-15.3,10.4-5.3,20.6-10.7,30.8-16.3s20.3-11.3,30.3-17.2,19.9-12,29.7-18.2,19.5-12.6,29.1-19.1,19.1-13.2,28.5-20,18.7-13.8,27.8-20.9c9.2-7.1,18.2-14.4,27.2-21.8,15.6,17.4,29.7,38.4,55.3,39.9,8.3.5,17.2-1.9,25-4.5,39.4,65.4,139.8,228,214.8,247.3,1.2.3,2.4.6,3.7.8,1.2.3,2.5.5,3.7.7s2.5.4,3.7.5,2.5.2,3.8.3c1.2,0,2.5.1,3.8.1h3.8c1.2,0,2.5-.1,3.7-.3,1.2-.1,2.5-.3,3.7-.5s2.5-.4,3.7-.6c1.2-.2,2.5-.5,3.7-.8s2.4-.6,3.6-1c1.2-.4,2.4-.8,3.6-1.2,1.2-.4,2.3-.9,3.5-1.4s2.3-1,3.4-1.5c1.1-.5,2.3-1.1,3.4-1.7,1.1-.6,2.2-1.2,3.3-1.9,18.8-11.3,33.4-30,38.3-51.5,5.7-25-2-49-15.5-70.1-41.9-65.3-159.2-144.2-225.7-187.5,6.6-19.5,10.3-36.7.8-55.9-6.9-14-19.5-23.5-32.5-31.2,125.1-136.2,206.5-324.2,241.1-504.9,4.9-25.6,15.3-64,13-89.1-.3-2.7-1-4.4-2.1-6.9,24.1.4,68.2,6.4,87.8-11.1,5.9-5.3,10.2-14.3,10.6-22.3,0-1.7,0-2.7-.2-4.5,44.6,7.7,90.2,9.8,135.1,15.5,43.9,5.6,125.9,21.4,166.3,18.9,15.5-.9,27.7-5.8,40.4-14.8,19.5-13.7,34.4-34.5,38.2-58.3,3.5-21.4-3.1-42.7-15.9-59.9v-.5h-.1ZM2338.8,1127.2c113.1,115.4,204.4,342.6,206,504.2-128.8-2.3-257.9-.7-386.7-1.2-57.2-.2-114.5-.8-171.6,1.4-7.5-44.3-19.8-80.3-39.8-120.3,44.9-37,85.4-82.2,126.9-123l263.8-262.6c.5.5,1,.9,1.4,1.4h0ZM1737.6,819.3c9.3.8,18.6,1.7,27.9,2.7,9.3,1.1,18.6,2.3,27.8,3.6,9.2,1.4,18.5,2.9,27.7,4.5,9.2,1.7,18.4,3.5,27.5,5.4s18.3,4,27.3,6.3c9.1,2.2,18.1,4.6,27.1,7.1s18,5.2,26.9,8,17.8,5.8,26.6,8.9c8.8,3.1,17.6,6.3,26.3,9.7,8.7,3.4,17.4,6.9,26,10.5,8.6,3.7,17.2,7.4,25.6,11.4,8.5,3.9,16.9,8,25.3,12.2,8.4,4.2,16.6,8.5,24.9,13,8.2,4.5,16.4,9,24.4,13.8,8.1,4.7,16.1,9.6,24,14.5,7.9,5,15.8,10.1,23.5,15.3,34.2,23,65.9,48.7,98.1,74.3-65,65.6-130.4,130.8-196.1,195.6-66.6,61-128.9,128.6-192.5,192.7-36.8-28.9-83.4-46.2-129.5-53.3,1.5-185.5,1.8-370.9,1.1-556.4v.2h.1ZM1181.8,977.1c122.6-85.2,276-147.8,426.1-156.6,4.2-.2,5.4-.4,9.1,1.4,2.2,5.2,2.6,10.2,2.8,15.7.4,11-1,22.1-.8,33.1l.5,136.8v371.3c-44.4,4.2-89.4,27.7-125.8,51.8-62.3-63.9-125.7-126.7-190.3-188.3-66.3-68.3-134-135.2-201.1-202.8,25.9-21.6,51.8-43.3,79.5-62.6v.2h0ZM946.3,1225.5c22.4-34.7,48.4-67.2,73.5-99.9,21.1,12.7,88,86.4,110.2,108.9,39,39.4,79,77.6,118,117,55,55.7,109.2,112.5,166.8,165.5-24,34.4-35.1,71-44.1,111.3l-161,.7c-132.7-.7-265.5-.5-398.2.7,7.4-141.6,58.2-285.4,134.7-404.3h0ZM1017.8,2252.4c-15.5-19.6-32-38-46.4-58.4-95.3-134.9-146-286.3-160.2-450l560.7.8c4.4,40.3,22,77.3,43.2,111.4-68.4,64.3-135.2,131.6-200.5,199.1-64.4,64.6-135,130.7-196.7,197.1h0ZM1623.3,2230.4v316.1c-113.6-8-215.5-33.5-320.3-78.4-81.7-38.8-137.3-77-207.7-132.5,39.9-35.8,76.7-76.6,114.9-114.3l282.8-280.3c41.9,30.9,80.6,46.8,130.7,59-2.1,76.6-.6,153.7-.4,230.4h0ZM1693,1845.1c-45,1.1-81.6-9.9-117.3-38.1-32.4-25.6-50.1-59-54.7-100-4.6-41.2,7.7-85.1,33.9-117.3,28.8-35.4,69.7-55.9,114.7-60.3,33-3.6,71.7,9.1,98.7,27.8,34.6,23.9,58.9,63.2,66.1,104.6,6.8,39.4-3.4,84-26.8,116.6-28.2,39.4-67.7,59.2-114.6,66.7h0ZM2056.5,2468.1c-102.7,48.3-206.6,68.3-318.5,78.5-2.7-71.9-.9-144.2-.6-216.1l-.4-332.5c46.6-10.2,87.7-23.9,126.2-53.3,50.9,45.8,98.8,95.3,147.6,143.3,84.3,81.8,167.5,164.6,249.7,248.6-62.9,52.8-130.1,95.7-204.1,131.6h.1ZM2422.9,2141.2c-23.9,39-51.5,74.8-79.5,110.9-26.6-25.7-52.9-51.6-79.1-77.8l-203.2-199.7c-37.1-36.5-75-80-116.8-110.8,22.7-37.5,33.6-74.4,42.4-117,105.6.6,211.1.4,316.7-.4l241.3-.5c-5.5,136.8-50.6,278.6-121.9,395.3h0Z" fill="#0d1b2a" stroke="#000" stroke-miterlimit="10"/>
</svg>