<?xml version="1.0" encoding="UTF-8"?>
<svg id="Ebene_1" data-name="Ebene 1" xmlns="http://www.w3.org/2000/svg" viewBox="0 0 6192.45 6222.45">
  <defs>
    <style>
      .cls-1 {
        fill-rule: evenodd;
      }
    </style>
  </defs>
  <path class="cls-1" d="M3599.15,473.39h441c48.94,0,98.45-2.9,146,1,65.24,5.36,106.31,45.94,120,101,4.98,20.02,4,42.44,4,69,.01,95.94,0,197.72,0,294h349c62.12,0,108.96,2.61,153,17,41.85,13.68,77.69,34.22,110,60,63.39,50.59,111.31,121.13,126,215,7.99,51.04,7.08,105.39,10,160,25.55,478.12,51.3,972.47,77,1455-.37,1.7.78,1.89,2,2,113.87,41.15,232.26,84.7,344,125,58.02,20.93,104.75,46.23,145,85,39.03,37.59,69.64,83.34,89,141,20.08,59.79,22.83,135.46,6,200-15.54,59.56-36.31,121.21-53,177-176.53,590.01-358.69,1195.63-535,1784,.44.89.88,1.79,2,2,98.74,20.13,174.61,45.28,247,85,18.05,9.91,33.9,21.96,51,32,115.95,68.1,300.55,99.56,490,79,23.68-2.57,48.54-5.46,73-10,23.22-4.31,45.52-11.55,67-16,52.96-10.96,93.63,16.05,113,47,25.88,41.34,17.92,92.61-9,125-25.27,30.4-73.78,40.43-117,49-92.62,18.36-202.28,27.77-307,21-156.6-10.13-288.95-43.35-397-101-35.66-19.03-67.31-42.09-106-59-75.94-33.2-168.26-53.15-272-60-160.71-10.61-314.64,17.65-421,73-35.89,18.68-67.8,41.51-106,60-143.72,69.58-355.23,104.53-568,82-153.42-16.24-274.21-56.39-378-120-101.92-62.46-234.82-97.02-400-97-108.19,0-207.47,15.99-288,44-80.61,28.04-141.29,77.76-222,110-149.15,59.59-375.06,88.29-580,56-95.73-15.08-181.61-39.21-256-76-38.01-18.8-70.27-41.75-106-60-105.71-54-260.29-83.01-422-72-102.39,6.97-195.43,27.29-271,60-38.54,16.68-70.33,40.99-106,60-108.15,57.63-240.81,90.33-398,100-104.85,6.45-214.08-3.79-306-22-45.11-8.94-90.54-18.11-116-50-26.47-33.16-33.51-83.3-7-124,20.42-31.35,60.64-56.67,113-45,44.77,9.98,95.26,21.05,140,26,162.24,17.95,323.39-6.19,435-53,38.24-16.04,70.51-39.12,107-59,72.05-39.24,146.72-66.27,246-85,.19-.81,1-1,1-2-177.42-592.16-357.08-1189.28-535-1784-16.96-56.68-37.27-117.97-53-179-36.42-141.33,22.28-273.04,97-342,41.39-38.2,89.72-62.91,148-84,111.4-40.31,225.94-82.14,340-123,32.26-509.39,50.57-1036.21,83-1543,1.73-26.97,1.35-53.68,6-79,24.39-132.93,116.82-233.81,240-272,43.94-13.62,95.38-15,155-15h341c.85.18.94-.39,1-1v-294c0-54.82,4.09-87.79,28-119,20.12-26.26,51.37-46.34,96-50,47.54-3.9,97.07-1,146-1h441c0-99.39,0-198.63,0-298,0-57.13,3.09-88.53,28-121,21.75-28.35,50.43-47.16,99-53,26.07-3.13,56.24,0,85,0h591c64.71,0,107.5-1.81,145,24,33.59,23.13,56.93,56.66,58,111,2.11,106.9-1.57,215.32,0,337ZM2804.15,216.39v257h584V213.39h-583c-1.16.17-1.09,1.58-1,3ZM2094.15,688.39v250h2004v-253h-2003c-1.16.17-1.09,1.58-1,3ZM4844.15,1340.39c-1.15-25.22-1.58-50.55-5-74-6.52-44.69-32.72-75.94-63-95-16.29-10.25-35.94-19.21-58-21-23.4-1.89-49.82,0-80,0-1024.37.02-2058.45-.02-3085,0-26.9,0-55.51-2.94-80,0-60.52,7.27-107.58,52.12-119,111-6.3,32.47-4.79,69.69-7,106-28.62,469.46-46.08,933.81-74,1400,570.92-203.82,1148.43-413.82,1720-621,37.05-13.43,83.1-36.09,125-28,17.75,3.42,37.59,12.11,57,19,18.51,6.57,37.53,14.46,56,21,566.04,200.3,1124.77,410.34,1688,610-23.55-481.31-53.32-950.57-75-1428ZM5506.15,3381.39c7.23-23.96,16.59-53.73,15-80-3.27-53.97-33.35-93.82-73-115-20.17-10.78-45.24-17.97-68-26-393.21-138.65-786.39-285.96-1178-425-355.66-126.28-713.77-261.89-1072-388-11.01-3.88-27.87-12.56-36-12-10.74.74-25.16,9.69-37,14-80.91,29.43-164.35,58.9-242,87-462.23,167.25-923.12,331.19-1381,500-183.85,67.78-369.45,131.41-553,200-89.21,33.34-203.71,48.48-210,166-1.39,25.99,7.35,53.67,15,79,79.76,264.13,159.18,531.69,239,796,87.06,288.29,176.07,578.71,261,868,28.69,97.72,59.32,200.34,90,294,188.22,0,339.99,35.65,466,99,31.76,15.97,58.86,36.15,89,52,31.62,16.63,66.62,28.36,103,39,71.13,20.8,157.67,34,249,34,142.73,0,260.41-21.52,355-68,29.53-14.51,58.45-34.56,90-52,61.5-33.99,131.43-57.95,208-75,78.28-17.43,161.25-25.53,254-29,86.6-3.24,179.6,9.26,256,26,78.31,17.16,148.25,40.24,210,73,30.86,16.37,58.68,37.01,89,52,94.88,46.91,209.81,73,352,73s258.2-24.43,354-69c31.1-14.47,58.54-35.34,90-52,124.03-65.69,279.88-100.29,463-103,5.27-.08,14.25,2.24,14-3,198.3-655.85,391-1302.51,588-1955ZM1669.15,1289.39c61.19-5.62,134.52-1,199-1,129.71,0,264.22,0,395,0,34.86,0,66.33-.73,91,8,45.25,16.01,81.01,53.04,88,109,3.72,29.78,1,62.78,1,98,0,105.31,0,194.36,0,296,0,35.28.78,66.18-8,91-16.02,45.27-51.55,80.81-109,88-30.7,3.84-65.6,1-99,1h-497c-35.46,0-66.81,1.67-92-7-47.31-16.28-81.5-52.8-89-110-3.64-27.72-2-60.12-2-97,0-69.07,0-135.14,0-199,0-64.76-8.04-142.59,9-190,17.3-48.13,57.65-81.91,113-87ZM1759.15,1500.39c.67,89-1.33,180.67,1,268h471v-268c-153.33,0-315.33,0-472,0ZM2771.15,1289.39c43.91-3.6,96.14-1,142-1,138.23,0,282.01,0,420,0,53.02,0,95.48-3.19,129,11,30.27,12.82,55.88,34.02,71,69,14.42,33.37,11,80.52,11,129v280c0,50.04,1.07,94.53-14,126-15.67,32.71-39.1,54.61-73,67-32.65,11.94-80.63,9-131,9h-420c-45.69,0-93.71,4.22-139-1-63.72-7.34-109.97-51.98-117-116-7.32-66.72-2-152.77-2-230v-116c0-40.85-2.51-80.69,2-114,8.5-62.74,58.37-107.86,121-113ZM2860.15,1502.39v265c155,1.67,317,1.67,472,0v-267c-152.67,0-314,0-470,0-.01-2.35-2.73.37-2,2ZM3871.15,1289.39c60.98-5.61,134.28-1,199-1,129.91,0,264.61,0,396,0,34.68,0,66.35-1.03,91,8,44.89,16.44,80.85,54.8,87,111,3.28,29.96,1,62.59,1,98,0,67.91,0,136.76,0,198,0,62.74,8.14,142.9-9,189-17.27,46.45-54.65,79.84-111,86-34.89,3.82-73.17,1-111,1h-446c-37.27,0-76.38,4.02-109-2-57.94-10.69-100.46-52.83-109-113-3.79-26.72-1-56.55-1-86,0-86.28,0-171.23,0-261,0-61.27-4.46-119.26,16-158,20.29-38.42,56.06-65.41,106-70ZM3961.15,1502.39v266c157-.67,316.67,1.33,472-1v-267h-471c-.32-1.61-1.42.08-1,2ZM4779.15,3534.39c19.18,7.06,39.94,15.65,61,20,73.81,15.24,132.69-38.23,128-112-2.86-44.94-32.67-75.73-72-91-119.24-46.31-242.91-87.77-360-130-464.72-167.6-919.58-328.88-1383-496-23.28-8.4-47.47-17.04-71-13-40.07,6.89-81.28,26.38-121,41-280.18,103.12-559.55,199.59-838,300-259.51,93.58-516.78,187.24-777,279-20.03,7.06-41.99,13.72-60,22-37.14,17.06-63.34,52.69-62,101,1.31,47.17,28.35,80.8,67,95,45.3,16.64,93.01-5.59,130-19,559.75-202.91,1115.73-399.54,1674-602h2c559.11,204.95,1123.19,399.33,1682,605ZM773.15,5916.39c-119.11,74.27-307.42,108.03-502,88-41.08-4.23-88.65-13.34-127-23-45.84-11.55-87.74-1.54-114,25-23.18,23.43-38.97,71.07-23,113,14.06,36.94,42.14,56.01,84,67,77.11,20.24,168.72,35.01,266,35,198.53-.02,365.48-33.34,496-106,33.1-18.43,62.2-38.8,96-54,100.79-45.31,242.28-69.72,388-62,142.09,7.53,260.43,41.27,352,99,148.48,93.62,378.31,141.85,624,117,137.95-13.95,255.54-46.93,351-101,32.2-18.24,62.2-38.74,97-54,65.93-28.92,148.98-50.39,243-58,95.66-7.74,196.71-3.5,280,13,86.11,17.06,154.39,45.19,217,84,120.32,74.58,288.56,122.02,480,122,198.95-.02,360.54-32.35,495-107,32.68-18.14,62.31-39.15,96-54,102.49-45.17,237.69-68.9,389-61,96.96,5.07,179.84,21.72,252,49,70.72,26.73,125.54,71.83,199,102,70.64,29.01,151.48,48.63,240,61,136.03,19.01,293.55,10.63,415-16,21.07-4.62,41.99-9.01,59-16,50.21-20.62,86.24-85.79,53-148-16.35-30.59-46.81-57.26-95-56-25.42.67-51,10.7-77,16-26.21,5.35-53.84,9.83-81,13-179.54,20.98-361.58-8.96-478-72-41.61-22.53-78.38-47.31-121-66-126.84-55.61-293.79-87.84-481-79-175.93,8.3-325.11,51.1-439,122-39.75,24.75-80.2,44.94-128,60-96.41,30.38-209.98,44.72-331,39-115.51-5.46-220.62-30.58-303-72-42.13-21.18-78.47-46.19-121-66-124.39-57.95-291.09-90.23-477-83-179.65,6.99-328.24,46.66-444,117-39.54,24.03-78.82,46.16-126,62-96.1,32.26-206.84,47.26-329,43-113.29-3.95-223.59-28.78-307-68-42.57-20.01-78.02-47.32-120-67-123.87-58.06-289.3-95.84-475-87-193.21,9.2-345.98,49.8-473,129Z"/>
</svg>